<?xml version="1.0" encoding="utf-8"?>
<!-- Generator: Adobe Illustrator 23.0.2, SVG Export Plug-In . SVG Version: 6.00 Build 0)  -->
<svg version="1.1" id="Layer_1" xmlns="http://www.w3.org/2000/svg" xmlns:xlink="http://www.w3.org/1999/xlink" x="0px" y="0px"
	 viewBox="0 0 1686.1 1231.8" style="enable-background:new 0 0 1686.1 1231.8;" xml:space="preserve">
<style type="text/css">
	.st0{fill:#376086;}
	.st1{fill:#FFFFFF;stroke:#376086;stroke-width:29.0876;stroke-linejoin:round;stroke-miterlimit:10;}
	.st2{fill:#FFFFFF;}
	.st3{fill:#FFFFFF;stroke:#376086;stroke-width:31.5209;stroke-linejoin:round;stroke-miterlimit:10;}
	.st4{fill:none;stroke:#376086;stroke-width:19.7157;stroke-linejoin:round;stroke-miterlimit:10;}
	.st5{fill:none;stroke:#376086;stroke-width:27.6073;stroke-miterlimit:10;}
	.st6{fill:none;stroke:#376086;stroke-width:27.3872;stroke-miterlimit:10;}
	.st7{clip-path:url(#SVGID_2_);fill:#376086;}
	.st8{clip-path:url(#SVGID_4_);fill:#376086;}
</style>
<g>
	<path class="st1" d="M1671.6,276.4v700.2c0,22-17.8,39.8-39.8,39.8h-86.9v184.1c0,14.8-17.9,22.3-28.4,11.8l-197.1-197.1H352.1
		c-21.9,0-39.6-17.7-39.6-39.6V276.3c0-21.9,17.7-39.6,39.6-39.6h1279.7C1653.8,236.7,1671.6,254.5,1671.6,276.4z"/>
	<path class="st2" d="M78.5,118.5v758.8c0,23.8,19.3,43.1,43.1,43.1h94.2v199.5c0,16.1,19.4,24.1,30.8,12.8l213.6-213.6h1048.1
		c23.7,0,42.9-19.2,42.9-42.9V118.3c0-23.7-19.2-42.9-42.9-42.9H121.5C97.7,75.4,78.5,94.7,78.5,118.5z"/>
	<path class="st3" d="M15.8,58.8v758.8c0,23.8,19.3,43.1,43.1,43.1h94.2v199.5c0,16.1,19.4,24.1,30.8,12.8l213.6-213.6h1048.1
		c23.7,0,42.9-19.2,42.9-42.9V58.7c0-23.7-19.2-42.9-42.9-42.9H58.8C35,15.8,15.8,35,15.8,58.8z"/>
	<g>
		<path class="st0" d="M398.8,265.4h183.4v34H439.1V407h121.3v34H439.1v142.6h-40.3V265.4z"/>
		<path class="st0" d="M686,265.4h45.6l107.7,318.2h-43.2l-30.1-97H650.1l-30.6,97h-41.2L686,265.4z M660.3,454.1h95.6l-15-48.5
			c-11.6-35.4-21.8-70.3-32-107.2h-1.9c-9.7,36.9-19.9,71.8-31.5,107.2L660.3,454.1z"/>
		<path class="st0" d="M977,588c-69.4-9.7-115.9-71.3-115.9-164.9c0-101.9,55.8-163.5,135.8-163.5s136.3,62.1,136.3,163.5
			c0,91.7-45.1,152.8-112.5,164.4c14.6,28.1,43.7,42.2,78.1,42.2c14.1,0,24.7-1.9,33.5-4.4l7.8,31c-9.7,3.9-26.7,7.3-45.6,7.3
			C1035.7,663.6,995.5,631.6,977,588z M1091,423c0-79.1-37.4-128.1-94.1-128.1c-56.7,0-94.1,49-94.1,128.1
			c0,81.5,37.4,132.9,94.1,132.9C1053.7,556,1091,504.5,1091,423z"/>
	</g>
</g>
</svg>
