<?xml version="1.0" encoding="utf-8"?>
<!-- Generator: Adobe Illustrator 23.0.2, SVG Export Plug-In . SVG Version: 6.00 Build 0)  -->
<svg version="1.1" id="Layer_1" xmlns="http://www.w3.org/2000/svg" xmlns:xlink="http://www.w3.org/1999/xlink" x="0px" y="0px"
	 viewBox="0 0 1036.8 1329.1" style="enable-background:new 0 0 1036.8 1329.1;" xml:space="preserve">
<style type="text/css">
	.st0{fill:#376086;}
	.st1{fill:#FFFFFF;stroke:#376086;stroke-width:29.0876;stroke-linejoin:round;stroke-miterlimit:10;}
	.st2{fill:#FFFFFF;}
	.st3{fill:#FFFFFF;stroke:#376086;stroke-width:31.5209;stroke-linejoin:round;stroke-miterlimit:10;}
	.st4{fill:none;stroke:#376086;stroke-width:19.7157;stroke-linejoin:round;stroke-miterlimit:10;}
	.st5{fill:none;stroke:#376086;stroke-width:27.6073;stroke-miterlimit:10;}
	.st6{fill:none;stroke:#376086;stroke-width:27.3872;stroke-miterlimit:10;}
	.st7{clip-path:url(#SVGID_2_);fill:#376086;}
	.st8{clip-path:url(#SVGID_4_);fill:#376086;}
</style>
<path class="st0" d="M865.2,414.5H172.6c-6.5,0-11.8-5.3-11.8-11.8v-1c0-6.5,5.3-11.8,11.8-11.8h692.7c6.5,0,11.8,5.3,11.8,11.8v1
	C877.1,409.2,871.8,414.5,865.2,414.5z"/>
<path class="st0" d="M863.6,552.2H170.9c-6.5,0-11.8-5.3-11.8-11.8v-1c0-6.5,5.3-11.8,11.8-11.8h692.7c6.5,0,11.8,5.3,11.8,11.8v1
	C875.4,546.9,870.1,552.2,863.6,552.2z"/>
<path d="M864.4,871.2H171.7c-6.5,0-11.8-5.3-11.8-11.8v-1c0-6.5,5.3-11.8,11.8-11.8h692.7c6.5,0,11.8,5.3,11.8,11.8v1
	C876.2,865.9,870.9,871.2,864.4,871.2z"/>
<path class="st0" d="M864.4,1190.3H171.7c-6.5,0-11.8-5.3-11.8-11.8v-1c0-6.5,5.3-11.8,11.8-11.8h692.7c6.5,0,11.8,5.3,11.8,11.8v1
	C876.2,1185,870.9,1190.3,864.4,1190.3z"/>
<path class="st0" d="M498.2,276.9H163.8c-6.5,0-11.8-5.3-11.8-11.8v-1c0-6.5,5.3-11.8,11.8-11.8h334.5c6.5,0,11.8,5.3,11.8,11.8v1
	C510.1,271.6,504.8,276.9,498.2,276.9z"/>
<rect x="9.9" y="665" class="st0" width="1017" height="387.9"/>
<g>
	<path class="st2" d="M351.5,939.5c-38.8-5.4-64.8-39.9-64.8-92.2c0-57,31.2-91.4,76-91.4s76.2,34.7,76.2,91.4
		c0,51.3-25.2,85.5-62.9,92c8.1,15.7,24.4,23.6,43.7,23.6c7.9,0,13.8-1.1,18.7-2.4l4.3,17.4c-5.4,2.2-14.9,4.1-25.5,4.1
		C384.3,981.8,361.8,963.9,351.5,939.5z M415.2,847.2c0-44.2-20.9-71.6-52.6-71.6S310,803,310,847.2c0,45.6,20.9,74.3,52.6,74.3
		S415.2,892.8,415.2,847.2z"/>
	<path class="st2" d="M464.1,914l13.6-15.7c12.8,13.3,30.7,22.2,49.1,22.2c23.3,0,37.2-11.7,37.2-29c0-18.2-12.8-23.9-29.6-31.5
		l-25.5-11.1c-16.8-7.1-36.1-19.8-36.1-45.8c0-27.1,23.6-47.2,55.9-47.2c21.2,0,39.9,9,52.6,22l-12.2,14.7
		c-10.9-10.3-23.9-16.8-40.4-16.8c-19.8,0-33.1,10-33.1,26c0,17.1,15.5,23.6,29.6,29.6l25.2,10.9c20.6,9,36.6,21.2,36.6,47.5
		c0,28.2-23.1,50.7-60.5,50.7C501.5,940.3,479.5,930,464.1,914z"/>
	<path class="st2" d="M611.7,848.1c0-57.2,34.5-92.2,81.7-92.2c24.7,0,41,11.1,51.3,22l-12.5,14.7c-9-9.2-20.3-16.8-38.3-16.8
		c-35.8,0-58.9,27.7-58.9,71.9c0,44.8,21.2,73,59.1,73c12.8,0,25-4.1,32-10.6v-46.4h-37.7v-18.7h58.3v74.9
		c-11.4,11.9-30.9,20.6-54.8,20.6C645,940.3,611.7,906.1,611.7,848.1z"/>
</g>
<path class="st4" d="M9.9,45.6v1238.1c0,19.6,15.9,35.5,35.5,35.5h946.5c19.3,0,35-15.7,35-35V299.2H782.2
	c-19.5,0-35.4-15.8-35.4-35.4V9.9H45.6C25.9,9.9,9.9,25.9,9.9,45.6z"/>
<line class="st4" x1="746.8" y1="9.9" x2="1026.9" y2="299.2"/>
</svg>
