<svg id="Layer_1" data-name="Layer 1" xmlns="http://www.w3.org/2000/svg" viewBox="0 0 512 512"><defs><style>.cls-1{fill:#231f20;}</style></defs><title>Search</title><path class="cls-1" d="M310.88,52.89a183.19,183.19,0,0,0-257.54,0,179.52,179.52,0,0,0,0,255.39,183.2,183.2,0,0,0,257.54,0A179.52,179.52,0,0,0,310.88,52.89ZM294,291.56a159.2,159.2,0,0,1-223.81,0,156,156,0,0,1,0-221.94,159.2,159.2,0,0,1,223.81,0,156,156,0,0,1,0,221.94ZM508.6,491.9a11.76,11.76,0,0,1-.18,16.73,12,12,0,0,1-16.87-.18L327.7,342.25a11.75,11.75,0,0,1,.19-16.72,12,12,0,0,1,16.87.18Z" transform="translate(0)"/></svg>