<svg id="Layer_1" data-name="Layer 1" xmlns="http://www.w3.org/2000/svg" viewBox="0 0 512 512"><defs><style>.cls-1{fill:#231f20;}</style></defs><title>User</title><path class="cls-1" d="M256.09,0A255.89,255.89,0,0,0,73.65,435.52a10.49,10.49,0,0,0,.77.85c.2.21.38.44.59.65a256.13,256.13,0,0,0,362.15,0c.21-.21.39-.45.61-.67a10.31,10.31,0,0,0,.71-.79c98.44-99.92,98.05-261.23-1.32-360.57A254.4,254.4,0,0,0,256.09,0Zm0,489.07A231.49,231.49,0,0,1,93.87,423.2,163.2,163.2,0,0,1,199.33,276.69a11.46,11.46,0,0,0,3.3-19.55,84.22,84.22,0,1,1,106.89,0,11.45,11.45,0,0,0,3.3,19.55A163.16,163.16,0,0,1,418.29,423.22,231.49,231.49,0,0,1,256.09,489.07Zm183-88.95a186.64,186.64,0,0,0-102.07-138,105.91,105.91,0,0,0,26.17-69.54,107.14,107.14,0,0,0-214.28,0,105.9,105.9,0,0,0,26.16,69.54A186.69,186.69,0,0,0,73,400.13,233,233,0,0,1,256.09,22.92,231.63,231.63,0,0,1,420.95,91.19C505.26,175.49,511.23,308.73,439.13,400.13Z" transform="translate(0)"/></svg>