<?xml version="1.0" encoding="UTF-8"?>
<svg width="52px" height="43px" viewBox="0 0 52 43" version="1.1" xmlns="http://www.w3.org/2000/svg" xmlns:xlink="http://www.w3.org/1999/xlink">
    <!-- Generator: Sketch 58 (84663) - https://sketch.com -->
    <title>video</title>
    <desc>Created with Sketch.</desc>
    <defs>
        <path d="M50.295,0.229 L2.214,4.215 C1.463,4.277 0.904,4.936 0.966,5.687 L0.966,5.687 L1.296,9.661 L52.097,5.449 L51.768,1.476 C51.709,0.763 51.112,0.224 50.409,0.224 L50.409,0.224 C50.372,0.224 50.334,0.225 50.295,0.229 L50.295,0.229 Z" id="path-1"></path>
        <path d="M50.295,0.229 L2.214,4.215 C1.463,4.277 0.904,4.936 0.966,5.687 L0.966,5.687 L1.296,9.661 L52.097,5.449 L51.768,1.476 C51.709,0.763 51.112,0.224 50.409,0.224 L50.409,0.224 C50.372,0.224 50.334,0.225 50.295,0.229 L50.295,0.229 Z" id="path-3"></path>
        <path d="M50.295,0.229 L2.214,4.215 C1.463,4.277 0.904,4.936 0.966,5.687 L0.966,5.687 L1.296,9.661 L52.097,5.449 L51.768,1.476 C51.709,0.763 51.112,0.224 50.409,0.224 L50.409,0.224 C50.372,0.224 50.334,0.225 50.295,0.229 L50.295,0.229 Z" id="path-5"></path>
        <path d="M50.295,0.229 L2.214,4.215 C1.463,4.277 0.904,4.936 0.966,5.687 L0.966,5.687 L1.296,9.661 L52.097,5.449 L51.768,1.476 C51.709,0.763 51.112,0.224 50.409,0.224 L50.409,0.224 C50.372,0.224 50.334,0.225 50.295,0.229 L50.295,0.229 Z" id="path-7"></path>
        <path d="M50.295,0.229 L2.214,4.215 C1.463,4.277 0.904,4.936 0.966,5.687 L0.966,5.687 L1.296,9.661 L52.097,5.449 L51.768,1.476 C51.709,0.763 51.112,0.224 50.409,0.224 L50.409,0.224 C50.372,0.224 50.334,0.225 50.295,0.229 L50.295,0.229 Z" id="path-9"></path>
        <path d="M2.214,4.215 C1.463,4.277 0.904,4.936 0.966,5.687 L1.296,9.661 L52.097,5.449 L51.768,1.476 C51.709,0.763 51.112,0.224 50.409,0.224 C50.372,0.224 50.334,0.225 50.295,0.229 L2.214,4.215 Z" id="path-11"></path>
    </defs>
    <g id="video" stroke="none" stroke-width="1" fill="none" fill-rule="evenodd">
        <path d="M51,15.0277653 L51,41.6354275 C51,42.3892962 50.3902845,43 49.6376358,43 L1.41014193,43 C0.658492703,43 0.0477777037,42.3892962 0.0477777037,41.6354275 L0.0477777037,15.0277653 L51,15.0277653 Z M50.9762111,10.0103834 L50.9762111,15.0161519 L0,15.0161519 L0,10.0103834 L50.9762111,10.0103834 Z M50.6482373,2.19539786 L50.9762111,5.9892563 L0.333660849,10.0103834 L0.00469012855,6.21652495 C-0.0571164917,5.49938734 0.499143091,4.87010148 1.2478007,4.81089705 L49.1798316,1.00462477 C49.9284892,0.94446542 50.5854338,1.47826025 50.6482373,2.19539786 Z" id="Stroke-101" stroke="#376086" stroke-width="0.999" fill="#FFFFFF"></path>
        <g id="Group-105" transform="translate(-1.000000, 0.000000)">
            <mask id="mask-2" fill="white">
                <use xlink:href="#path-1"></use>
            </mask>
            <g id="Clip-104"></g>
            <polygon id="Fill-103" fill="#376086" mask="url(#mask-2)" points="1.296 9.871 6.169 4.117 10.709 3.74 5.821 9.512 11.586 14.394 7.002 14.774"></polygon>
        </g>
        <g id="Group-108" transform="translate(-1.000000, 0.000000)">
            <mask id="mask-4" fill="white">
                <use xlink:href="#path-3"></use>
            </mask>
            <g id="Clip-107"></g>
            <polygon id="Fill-106" fill="#376086" mask="url(#mask-4)" points="10.4002 9.9058 15.2732 4.1518 19.8132 3.7748 14.9252 9.5468 20.6902 14.4288 16.1062 14.8088"></polygon>
        </g>
        <g id="Group-111" transform="translate(-1.000000, 0.000000)">
            <mask id="mask-6" fill="white">
                <use xlink:href="#path-5"></use>
            </mask>
            <g id="Clip-110"></g>
            <polygon id="Fill-109" fill="#376086" mask="url(#mask-6)" points="19.4855 9.1526 24.3585 3.3986 28.8985 3.0216 24.0105 8.7936 29.7755 13.6756 25.1915 14.0556"></polygon>
        </g>
        <g id="Group-114" transform="translate(-1.000000, 0.000000)">
            <mask id="mask-8" fill="white">
                <use xlink:href="#path-7"></use>
            </mask>
            <g id="Clip-113"></g>
            <polygon id="Fill-112" fill="#376086" mask="url(#mask-8)" points="28.6235 8.3951 33.4965 2.6411 38.0365 2.2641 33.1485 8.0361 38.9135 12.9181 34.3295 13.2981"></polygon>
        </g>
        <g id="Group-117" transform="translate(-1.000000, 0.000000)">
            <mask id="mask-10" fill="white">
                <use xlink:href="#path-9"></use>
            </mask>
            <g id="Clip-116"></g>
            <polygon id="Fill-115" fill="#376086" mask="url(#mask-10)" points="37.6749 7.6447 42.5479 1.8907 47.0879 1.5137 42.1999 7.2857 47.9649 12.1677 43.3809 12.5477"></polygon>
        </g>
        <g id="Group-120" transform="translate(-1.000000, 1.000000)">
            <mask id="mask-12" fill="white">
                <use xlink:href="#path-11"></use>
            </mask>
            <g id="Clip-119"></g>
            <polygon id="Fill-118" fill="#376086" mask="url(#mask-12)" points="47.097 5.8871 51.97 0.1331 56.51 -0.2439 51.622 5.5281 57.387 10.4101 52.802 10.7901"></polygon>
        </g>
        <polygon id="Fill-124" fill="#376086" points="0 10 5.34075949 15 10 15 4.59746835 10.0140161 4.61265823 10"></polygon>
        <polygon id="Fill-125" fill="#376086" points="9 10 14.3417722 15 19 15 13.5974684 10.0140161 13.6126582 10"></polygon>
        <polygon id="Fill-126" fill="#376086" points="18 10 23.3407595 15 28 15 22.5974684 10.0140161 22.6126582 10"></polygon>
        <polygon id="Fill-127" fill="#376086" points="28 10 33.3407595 15 38 15 32.5974684 10.0140161 32.6126582 10"></polygon>
        <polygon id="Fill-128" fill="#376086" points="37 10 42.3412313 15 47 15 41.5970028 10.0140161 41.6121912 10"></polygon>
        <polygon id="Fill-129" fill="#376086" points="46 10 50.9735949 15 51 15 51 10.7269669 50.2814032 10.0140161 50.2955488 10"></polygon>
        <path d="M31.7933054,28.138965 L19.6198419,21.0566382 C19.3442492,20.8958534 19,21.0965908 19,21.4171859 L19,35.5828141 C19,35.9034092 19.3442492,36.1041466 19.6198419,35.9433618 L31.7933054,28.861035 C32.0688982,28.7002502 32.0688982,28.2997498 31.7933054,28.138965 Z" id="Stroke-98" stroke="#376086" stroke-width="1.007"></path>
    </g>
</svg>