<svg id="Layer_1" data-name="Layer 1" xmlns="http://www.w3.org/2000/svg" viewBox="0 0 512 512"><defs><style>.cls-1{fill:#231f20;}</style></defs><title>Workspace</title><path class="cls-1" d="M500.54,0H11.46A11.46,11.46,0,0,0,0,11.46V500.54A11.46,11.46,0,0,0,11.46,512H500.54A11.47,11.47,0,0,0,512,500.54V11.46A11.47,11.47,0,0,0,500.54,0ZM105.9,489.07h-83V22.92h83Zm383.17,0H128.82V22.92H489.07Z"/><path class="cls-1" d="M52.46,57.49h21a11.46,11.46,0,1,0,0-22.93h-21a11.46,11.46,0,0,0,0,22.93Z"/><path class="cls-1" d="M52.46,94.58h2.7a11.46,11.46,0,0,0,0-22.93h-2.7a11.46,11.46,0,0,0,0,22.93Z"/><path class="cls-1" d="M52.46,218h21a11.46,11.46,0,1,0,0-22.93h-21a11.46,11.46,0,0,0,0,22.93Z"/><path class="cls-1" d="M52.46,256.12h21a11.46,11.46,0,1,0,0-22.93h-21a11.46,11.46,0,0,0,0,22.93Z"/><path class="cls-1" d="M199.27,258.76h84.81a11.46,11.46,0,0,0,11.46-11.46V162.48A11.46,11.46,0,0,0,284.08,151H199.27a11.47,11.47,0,0,0-11.46,11.46V247.3A11.47,11.47,0,0,0,199.27,258.76Zm11.46-84.82h61.88v61.9H210.73Z"/><path class="cls-1" d="M325.3,258.76h84.81a11.46,11.46,0,0,0,11.46-11.46V162.48A11.46,11.46,0,0,0,410.12,151H325.3a11.46,11.46,0,0,0-11.46,11.46V247.3A11.46,11.46,0,0,0,325.3,258.76Zm11.46-84.82h61.88v61.9H336.77Z"/><path class="cls-1" d="M199.27,378.94h84.81a11.46,11.46,0,0,0,11.46-11.46V282.67a11.46,11.46,0,0,0-11.46-11.46H199.27a11.47,11.47,0,0,0-11.46,11.46v84.81A11.47,11.47,0,0,0,199.27,378.94Zm11.46-84.81h61.88V356H210.73Z"/><path class="cls-1" d="M325.3,378.94h84.81a11.46,11.46,0,0,0,11.46-11.46V282.67a11.46,11.46,0,0,0-11.46-11.46H325.3a11.46,11.46,0,0,0-11.46,11.46v84.81A11.46,11.46,0,0,0,325.3,378.94Zm11.46-84.81h61.88V356H336.77Z"/></svg>